<svg width="66" height="67" viewBox="0 0 66 67" fill="none" xmlns="http://www.w3.org/2000/svg">
<circle cx="33" cy="33.6387" r="33" fill="#FF6766" fill-opacity="0.17"/>
<path d="M49.7853 35.9152C49.7853 44.1331 42.2245 52.3616 32.8941 52.3616C23.5637 52.3616 16.0029 44.1331 16.0029 35.9152C16.0029 27.6972 23.5637 23.4053 32.8941 23.4053C42.2245 23.4053 49.7853 27.6964 49.7853 35.9152Z" fill="#FF1F1F"/>
<path d="M34.7749 21.7961C34.9348 22.075 35.1121 22.3436 35.3057 22.6004C35.3065 22.8119 35.2654 23.0214 35.1848 23.2169C35.1042 23.4124 34.9857 23.59 34.8362 23.7396C34.6867 23.8891 34.5091 24.0076 34.3135 24.0881C34.118 24.1687 33.9085 24.2098 33.697 24.2091H32.7962C32.4993 24.212 32.2076 24.1313 31.9544 23.9763C31.7013 23.8212 31.4968 23.5981 31.3645 23.3324C31.1218 22.8186 30.9383 22.2789 30.8175 21.7237C30.2464 19.2704 30.3108 15.86 31.5575 15.3613H34.3727C33.9076 16.3848 33.701 17.5068 33.7711 18.6289C33.8412 19.7509 34.1859 20.8385 34.7749 21.7961Z" fill="#9CCC65"/>
<path d="M36.1106 21.796C37.5665 21.7558 40.0921 22.2223 40.9367 23.4047C42.489 25.5764 45.5375 24.3056 45.7547 24.2171C44.146 27.2092 37.7193 25.8177 37.7193 25.8177C38.5236 29.574 36.915 31.4481 36.915 31.4481C34.5019 31.4481 32.0889 26.6221 32.0889 26.6221C30.4802 27.3701 28.0672 31.4481 28.0672 31.4481C24.8498 29.196 26.4585 26.6221 26.4585 26.6221C25.3183 26.6371 24.1948 26.3466 23.2048 25.7808C22.2147 25.2151 21.3941 24.3947 20.8281 23.4047C24.8498 23.4047 24.0455 23.461 26.4585 22.6004C27.727 22.0504 29.0978 21.7762 30.4802 21.796L30.818 21.7236C30.9389 22.2788 31.1224 22.8185 31.365 23.3323C31.4973 23.5981 31.7018 23.8212 31.955 23.9762C32.2082 24.1313 32.4999 24.212 32.7967 24.209H33.6976C33.909 24.2098 34.1186 24.1687 34.3141 24.0881C34.5096 24.0075 34.6872 23.8891 34.8368 23.7395C34.9863 23.59 35.1048 23.4124 35.1853 23.2169C35.2659 23.0214 35.307 22.8118 35.3063 22.6004C35.1127 22.3436 34.9354 22.075 34.7754 21.796H36.1106Z" fill="#9CCC65"/>
<path d="M49.7853 35.9152C49.7853 44.1331 42.2245 52.3616 32.8941 52.3616C23.5637 52.3616 16.0029 44.1331 16.0029 35.9152C16.0029 27.6972 23.5637 23.4053 32.8941 23.4053C42.2245 23.4053 49.7853 27.6964 49.7853 35.9152Z" fill="#FF6766"/>
<path d="M19.2194 31.8927C19.2067 30.2453 19.5566 28.6153 20.2441 27.1182C18.8962 28.1485 17.8098 29.4817 17.0729 31.0098C16.3359 32.538 15.969 34.2182 16.002 35.9144C16.002 44.1324 23.5629 52.3608 32.8932 52.3608C35.8828 52.3008 38.8059 51.4681 41.3784 49.9438C43.9508 48.4195 46.0849 46.2553 47.5732 43.6619C44.4865 46.6223 40.3873 48.2949 36.1106 48.3391C26.7802 48.3391 19.2194 40.1107 19.2194 31.8927Z" fill="#FF6766"/>
<path d="M34.7749 21.7961C34.9348 22.075 35.1121 22.3436 35.3057 22.6004C35.3065 22.8119 35.2654 23.0214 35.1848 23.2169C35.1042 23.4124 34.9857 23.59 34.8362 23.7396C34.6867 23.8891 34.5091 24.0076 34.3135 24.0881C34.118 24.1687 33.9085 24.2098 33.697 24.2091H32.7962C32.4993 24.212 32.2076 24.1313 31.9544 23.9763C31.7013 23.8212 31.4968 23.5981 31.3645 23.3324C31.1218 22.8186 30.9383 22.2789 30.8175 21.7237C30.2464 19.2704 30.3108 15.86 31.5575 15.3613H34.3727C33.9076 16.3848 33.701 17.5068 33.7711 18.6289C33.8412 19.7509 34.1859 20.8385 34.7749 21.7961Z" fill="#9CCC65"/>
<path d="M36.1106 21.796C37.5665 21.7558 40.0921 22.2223 40.9367 23.4047C42.489 25.5764 45.5375 24.3056 45.7547 24.2171C44.146 27.2092 37.7193 25.8177 37.7193 25.8177C38.5236 29.574 36.915 31.4481 36.915 31.4481C34.5019 31.4481 32.0889 26.6221 32.0889 26.6221C30.4802 27.3701 28.0672 31.4481 28.0672 31.4481C24.8498 29.196 26.4585 26.6221 26.4585 26.6221C25.3183 26.6371 24.1948 26.3466 23.2048 25.7808C22.2147 25.2151 21.3941 24.3947 20.8281 23.4047C24.8498 23.4047 24.0455 23.461 26.4585 22.6004C27.727 22.0504 29.0978 21.7762 30.4802 21.796L30.818 21.7236C30.9389 22.2788 31.1224 22.8185 31.365 23.3323C31.4973 23.5981 31.7018 23.8212 31.955 23.9762C32.2082 24.1313 32.4999 24.212 32.7967 24.209H33.6976C33.909 24.2098 34.1186 24.1687 34.3141 24.0881C34.5096 24.0075 34.6872 23.8891 34.8368 23.7395C34.9863 23.59 35.1048 23.4124 35.1853 23.2169C35.2659 23.0214 35.307 22.8118 35.3063 22.6004C35.1127 22.3436 34.9354 22.075 34.7754 21.796H36.1106Z" fill="#9CCC65"/>
<path d="M38.5244 26.6221C38.7184 27.4217 38.79 28.2462 38.7368 29.0673C43.4397 31.0097 46.5678 34.6582 46.5678 39.9363C46.5529 41.7821 46.1911 43.6085 45.5013 45.3206C46.2318 44.8191 46.9246 44.2648 47.5741 43.662C47.3955 43.9661 47.2078 44.2653 47.011 44.5597L47.0448 44.5114L47.1582 44.3385C47.27 44.1664 47.3778 43.9934 47.4799 43.8181C47.5194 43.7521 47.5604 43.6862 47.5974 43.6194C47.6963 43.4505 47.7912 43.2808 47.8837 43.1087C47.9231 43.0355 47.9642 42.9623 48.0012 42.8883C48.087 42.7215 48.1706 42.5534 48.2521 42.3839C48.2899 42.3035 48.3326 42.2231 48.3655 42.1426C48.4411 41.9818 48.5119 41.8129 48.5819 41.6472C48.6189 41.5603 48.6559 41.4734 48.6905 41.3857C48.7548 41.2249 48.8152 41.064 48.8747 40.8991C48.9085 40.8066 48.943 40.7141 48.9744 40.6208C49.0299 40.46 49.0798 40.2991 49.1297 40.1382C49.1586 40.0417 49.19 39.946 49.2173 39.8487C49.2632 39.6878 49.3034 39.5269 49.3436 39.366C49.3685 39.2663 49.3959 39.1666 49.4184 39.066C49.4554 38.9052 49.486 38.7443 49.5173 38.5834C49.5366 38.4829 49.5592 38.3823 49.5761 38.281C49.605 38.1201 49.6267 37.9504 49.6493 37.7855C49.6629 37.6874 49.679 37.5901 49.6903 37.4927C49.7112 37.3142 49.7249 37.1356 49.7385 36.9562C49.745 36.8718 49.7546 36.7865 49.7603 36.7021C49.7758 36.4382 49.7836 36.1747 49.7836 35.9114C49.8137 33.9545 49.3197 32.0251 48.3527 30.3235C47.3857 28.6219 45.981 27.21 44.2843 26.2344C44.7182 26.5031 45.1366 26.7961 45.5375 27.1119C42.7947 27.9476 38.5244 26.6221 38.5244 26.6221Z" fill="#FF6766"/>
<path d="M45.5387 27.1146C45.1378 26.7988 44.7194 26.5058 44.2856 26.2371C44.0443 26.0899 43.8158 25.9387 43.5665 25.8027C43.4201 25.847 43.2737 25.8912 43.1209 25.925C42.952 25.962 42.7806 25.9926 42.6077 26.0191C42.5144 26.0336 42.4219 26.0456 42.3278 26.0569C42.2337 26.0682 42.1171 26.081 42.0117 26.0899C41.9184 26.0987 41.8259 26.1076 41.7326 26.114C41.5653 26.1245 41.3996 26.1309 41.2339 26.1349C41.1317 26.1349 41.032 26.1349 40.9315 26.1349C40.8309 26.1349 40.7481 26.1349 40.6572 26.1349C40.5663 26.1349 40.4625 26.1349 40.366 26.1277C40.214 26.1221 40.0644 26.114 39.9188 26.1044L39.6429 26.0834L39.4088 26.0585L39.1611 26.0336C39.0509 26.0215 38.9455 26.0086 38.845 25.9958C38.7589 25.9853 38.6841 25.9749 38.6037 25.9636L38.4123 25.9355L38.2562 25.9113L38.0479 25.8759L37.9321 25.855L37.8146 25.8325L37.7696 25.8245L37.7197 25.8172C37.9364 26.7745 37.9953 27.7607 37.8943 28.737C38.1814 28.8399 38.4573 28.9525 38.7364 29.0668C38.7896 28.2456 38.718 27.4212 38.5241 26.6216C38.5241 26.6216 42.7943 27.9471 45.5387 27.1146Z" fill="#CB0303"/>
<path d="M42.7559 24.583C42.8443 24.6015 42.932 24.616 43.0205 24.6281C42.932 24.616 42.8435 24.6015 42.7559 24.583Z" fill="#9CCC65"/>
<path d="M44.9102 24.4903C44.9753 24.4734 45.0389 24.4573 45.0984 24.4404C45.0389 24.4573 44.9753 24.4742 44.9102 24.4903Z" fill="#9CCC65"/>
<path d="M44.5664 24.5667C44.6597 24.5482 44.7498 24.5289 44.8359 24.5088C44.7498 24.5305 44.6597 24.5482 44.5664 24.5667Z" fill="#9CCC65"/>
<path d="M42.0273 24.333C42.1078 24.37 42.1802 24.4054 42.2582 24.4352C42.181 24.4054 42.1038 24.37 42.0273 24.333Z" fill="#9CCC65"/>
<path d="M35.2803 22.8652C35.2973 22.778 35.3062 22.6894 35.3068 22.6006C35.3054 22.6894 35.2965 22.7779 35.2803 22.8652Z" fill="#9CCC65"/>
<path d="M37.7406 25.9332C37.7326 25.8938 37.7286 25.8528 37.7197 25.8174C37.7286 25.8576 37.7302 25.8922 37.7382 25.9324L37.7406 25.9332Z" fill="#9CCC65"/>
<path d="M41.6758 24.1289C41.7482 24.1788 41.8214 24.227 41.8962 24.2689C41.8214 24.2254 41.7482 24.1772 41.6758 24.1289Z" fill="#9CCC65"/>
<path d="M42.3887 24.4824C42.4691 24.5098 42.5495 24.5339 42.63 24.554C42.5511 24.5307 42.4699 24.5098 42.3887 24.4824Z" fill="#9CCC65"/>
<path d="M43.8401 24.6592C43.7259 24.6656 43.6085 24.668 43.4902 24.6656C43.6093 24.668 43.7259 24.6656 43.8401 24.6592Z" fill="#9CCC65"/>
<path d="M42.2578 24.4355C42.3012 24.4524 42.3455 24.4677 42.3889 24.483C42.3455 24.4677 42.3045 24.4508 42.2578 24.4355Z" fill="#9CCC65"/>
<path d="M35.2266 23.0896C35.2507 23.0163 35.2695 22.9413 35.2829 22.8652C35.2687 22.9411 35.2499 23.016 35.2266 23.0896Z" fill="#9CCC65"/>
<path d="M42.6338 24.5547C42.6748 24.5651 42.7142 24.5748 42.756 24.5836C42.715 24.5748 42.6748 24.5651 42.6338 24.5547Z" fill="#9CCC65"/>
<path d="M41.5527 24.042C41.593 24.0734 41.6332 24.0991 41.6766 24.1273C41.6348 24.0991 41.593 24.0734 41.5527 24.042Z" fill="#9CCC65"/>
<path d="M45.603 24.2764L45.4912 24.3166C45.533 24.3021 45.5716 24.2892 45.603 24.2764Z" fill="#9CCC65"/>
<path d="M43.4902 24.6651C43.4661 24.6651 43.4411 24.6651 43.417 24.6651C43.4411 24.6627 43.4661 24.6651 43.4902 24.6651Z" fill="#9CCC65"/>
<path d="M45.6018 24.2769C45.5688 24.2898 45.5318 24.3027 45.49 24.3171L45.4217 24.3413L45.3187 24.375L45.1892 24.4145L45.0983 24.441C45.0388 24.4579 44.9752 24.474 44.9101 24.4909L44.8361 24.5094C44.75 24.5295 44.6599 24.5488 44.5666 24.5673L44.5401 24.5721C44.3114 24.6159 44.08 24.645 43.8476 24.659H43.8395C43.7253 24.6654 43.6087 24.6678 43.4896 24.6654C43.4655 24.6654 43.4406 24.6654 43.4164 24.6654C43.3191 24.6654 43.2218 24.6558 43.1237 24.6453C43.0891 24.6453 43.0545 24.6365 43.0199 24.6316C42.9314 24.6196 42.8437 24.6051 42.7553 24.5866C42.7142 24.5777 42.6748 24.5681 42.633 24.5576C42.5526 24.5375 42.4721 24.5134 42.3917 24.486C42.3483 24.4708 42.304 24.4555 42.2606 24.4386C42.1802 24.4088 42.1062 24.3734 42.0297 24.3364C41.9863 24.3147 41.9429 24.2938 41.8994 24.2705C41.8246 24.2287 41.7514 24.1804 41.6791 24.1305C41.6372 24.1024 41.5986 24.0766 41.5552 24.0453C41.4796 23.9874 41.4072 23.9206 41.3348 23.853C41.3018 23.8209 41.2664 23.7935 41.2343 23.7605C41.1264 23.6495 41.0269 23.5307 40.9366 23.405C40.0921 22.2226 37.5665 21.7561 36.1106 21.7963H34.7754C34.9354 22.0753 35.1127 22.3439 35.3063 22.6007C35.3056 22.6895 35.2967 22.7781 35.2797 22.8653C35.2664 22.9414 35.2475 23.0164 35.2234 23.0897C36.8852 24.1289 41.1836 26.2797 45.6018 24.2769Z" fill="#9CCC65"/>
<path d="M35.1333 23.3135L35.1236 23.3047C35.0284 23.5036 34.8927 23.6803 34.725 23.8235C34.5574 23.9668 34.3617 24.0733 34.1504 24.1364C34.3624 24.075 34.5593 23.9702 34.7285 23.8285C34.8978 23.6868 35.0356 23.5114 35.1333 23.3135Z" fill="#9CCC65"/>
<path d="M37.019 31.3066C37.3544 30.824 38.3647 29.0311 37.7373 25.9328C36.6495 25.7175 35.5769 25.4314 34.5264 25.0762L37.019 31.3066Z" fill="#9CCC65"/>
<path d="M45.6024 24.2771C41.1841 26.2799 36.8857 24.125 35.2264 23.0898C35.2021 23.1667 35.1723 23.2417 35.1371 23.3143C35.0007 23.5797 34.7948 23.8031 34.5414 23.9608C34.288 24.1184 33.9965 24.2044 33.6981 24.2095H32.7973C32.5334 24.2065 32.2742 24.1394 32.042 24.014C32.8402 24.4351 33.6715 24.7905 34.5274 25.0766C35.5779 25.4318 36.6505 25.7179 37.7383 25.9332C37.7303 25.893 37.7287 25.8584 37.7198 25.8182C37.7198 25.8182 44.1465 27.2097 45.7552 24.2175L45.6024 24.2771Z" fill="#9CCC65"/>
<path d="M30.6523 23.1085C31.052 23.4221 31.4762 23.7032 31.9208 23.949C31.6818 23.7987 31.4892 23.5852 31.3642 23.3321C31.2838 23.1785 31.2202 22.9935 31.1518 22.8125C31.003 22.9114 30.8325 23.0104 30.6523 23.1085Z" fill="#9CCC65"/>
<path d="M30.8184 21.7236C30.8731 21.9569 30.9366 22.1725 31.0034 22.38C30.9382 22.1684 30.8731 21.9569 30.8184 21.7236Z" fill="#9CCC65"/>
<path d="M31.0029 22.3809C31.0504 22.5337 31.1003 22.6744 31.1525 22.8136C31.1003 22.6752 31.0512 22.5297 31.0029 22.3809Z" fill="#9CCC65"/>
<path d="M30.6531 23.1087C30.8333 23.0106 31.0038 22.9116 31.1526 22.8127C31.1004 22.6736 31.0505 22.5328 31.003 22.38C30.9363 22.1725 30.8727 21.9569 30.818 21.7236L30.4802 21.796C30.1086 21.796 29.7644 21.8193 29.4346 21.8515C29.7721 22.3321 30.1834 22.7563 30.6531 23.1087Z" fill="#9CCC65"/>
<path d="M32.7968 24.2091C32.5778 24.2097 32.3609 24.1656 32.1595 24.0794C31.9581 23.9932 31.7765 23.8669 31.6257 23.708C30.3553 24.506 29.3454 25.6574 28.72 27.021C28.0946 28.3847 27.8809 29.9013 28.1051 31.3846C28.4075 30.8851 30.5945 27.3171 32.089 26.6221L32.8933 24.2091H32.7968Z" fill="#9CCC65"/>
<path d="M31.9212 23.949C31.6606 23.8042 31.4177 23.6546 31.1877 23.501L28.7955 25.8931C28.709 25.9795 28.6433 26.0845 28.6035 26.2001C28.5636 26.3157 28.5507 26.4388 28.5656 26.5602C28.5804 26.6815 28.6228 26.7979 28.6894 26.9004C28.756 27.003 28.8451 27.089 28.95 27.1519L29.5838 27.5323C29.7278 27.6189 29.8954 27.6581 30.0629 27.6445C30.2303 27.631 30.3894 27.5653 30.5176 27.4567L33.7012 24.7622C33.1337 24.5453 32.5793 24.2952 32.0411 24.0133C32.0008 23.9916 31.9598 23.9739 31.9212 23.949Z" fill="#9CCC65"/>
<path d="M33.6981 24.2099H32.7973C32.6635 24.2095 32.5305 24.1914 32.4015 24.156C32.2765 24.1233 32.1557 24.0758 32.042 24.0144C32.5802 24.2963 33.1346 24.5463 33.7022 24.7632L35.3068 23.4055L35.1122 23.3564C34.9766 23.614 34.7732 23.8297 34.524 23.9801C34.2748 24.1305 33.9892 24.2099 33.6981 24.2099Z" fill="#9CCC65"/>
<path d="M31.9222 23.9487C31.8051 23.8746 31.6985 23.7851 31.6053 23.6825C31.508 23.5781 31.4267 23.46 31.364 23.3318V23.3262L31.1895 23.5007C31.4195 23.6543 31.6616 23.804 31.9222 23.9487Z" fill="#9CCC65"/>
<path d="M35.3059 22.6004C35.1123 22.3436 34.935 22.075 34.7751 21.7961C34.1861 20.8385 33.8414 19.7509 33.7713 18.6289C33.7012 17.5068 33.9078 16.3848 34.3729 15.3613H31.5577C31.4702 15.3983 31.3888 15.4485 31.3164 15.5101C31.5505 19.5053 33.2444 22.6004 35.3059 22.6004Z" fill="#9CCC65"/>
<path d="M44.6558 31.9635C45.1741 31.4452 45.0093 30.4401 44.2878 29.7186C43.5663 28.9971 42.5612 28.8323 42.0429 29.3506C41.5246 29.8689 41.6894 30.874 42.4109 31.5955C43.1324 32.317 44.1375 32.4818 44.6558 31.9635Z" fill="#FF6766"/>
<path d="M47.2175 32.114C47.4766 31.8548 47.3944 31.3524 47.0338 30.9918C46.6732 30.6312 46.1708 30.549 45.9116 30.8081C45.6525 31.0673 45.7347 31.5697 46.0953 31.9303C46.4559 32.2909 46.9583 32.3731 47.2175 32.114Z" fill="#FF6766"/>
<path d="M39.1765 24.8718C39.4356 24.6126 39.3533 24.1102 38.9927 23.7496C38.6321 23.389 38.1297 23.3068 37.8706 23.5659C37.6114 23.8251 37.6937 24.3275 38.0543 24.6881C38.4149 25.0487 38.9173 25.1309 39.1765 24.8718Z" fill="#9CCC65"/>
<path d="M44.2736 33.7989C44.4033 33.6692 44.3623 33.4178 44.182 33.2375C44.0017 33.0572 43.7504 33.0162 43.6206 33.146C43.4909 33.2757 43.5319 33.527 43.7122 33.7073C43.8925 33.8876 44.1438 33.9286 44.2736 33.7989Z" fill="#FF6766"/>
<path d="M37.0363 23.338C37.166 23.2082 37.125 22.9569 36.9447 22.7766C36.7644 22.5963 36.5131 22.5553 36.3833 22.685C36.2536 22.8148 36.2946 23.0661 36.4749 23.2464C36.6552 23.4267 36.9065 23.4677 37.0363 23.338Z" fill="#9CCC65"/>
</svg>
